<svg width="505" height="554" viewBox="0 0 505 554" fill="none" xmlns="http://www.w3.org/2000/svg">
<path d="M173.285 45.2471C208.682 -15.0824 295.905 -15.0824 331.3 45.2471L332.586 47.4382C348.918 75.27 378.684 92.4571 410.952 92.6831L413.495 92.7008C483.44 93.1906 527.051 168.727 492.501 229.546L491.246 231.755C475.307 259.813 475.307 294.188 491.246 322.245L492.501 324.453C527.051 385.274 483.44 460.809 413.495 461.299L410.952 461.316C378.684 461.543 348.918 478.731 332.586 506.561L331.3 508.752C295.905 569.083 208.682 569.083 173.285 508.752L172 506.561C155.67 478.731 125.901 461.543 93.6336 461.316L91.0932 461.299C21.1479 460.809 -22.463 385.274 12.0853 324.453L13.3401 322.245C29.2784 294.188 29.2784 259.813 13.3401 231.755L12.0853 229.546C-22.463 168.727 21.1479 93.1906 91.0932 92.7008L93.6336 92.6831C125.902 92.4571 155.67 75.27 172 47.4382L173.285 45.2471Z" fill="#FFCF59"/>
<path d="M183.134 74.1362C214.119 21.327 290.469 21.327 321.452 74.1362L322.577 76.0541C336.873 100.417 362.929 115.461 391.174 115.659L393.4 115.675C454.626 116.103 492.801 182.224 462.558 235.462L461.459 237.395C447.508 261.955 447.508 292.045 461.459 316.605L462.558 318.538C492.801 371.777 454.626 437.896 393.4 438.325L391.174 438.34C362.929 438.539 336.873 453.584 322.577 477.945L321.452 479.863C290.469 532.673 214.119 532.673 183.134 479.863L182.009 477.945C167.715 453.584 141.657 438.539 113.411 438.34L111.188 438.325C49.9613 437.896 11.7866 371.777 42.0283 318.538L43.1267 316.605C57.0783 292.045 57.0783 261.955 43.1267 237.395L42.0283 235.462C11.7866 182.224 49.9613 116.103 111.188 115.675L113.411 115.659C141.657 115.461 167.715 100.417 182.009 76.0541L183.134 74.1362Z" fill="#FFD776"/>
</svg>
